<?xml version="1.0" encoding="iso-8859-1"?>
<!-- Uploaded to: SVG Repo, www.svgrepo.com, Generator: SVG Repo Mixer Tools -->
<svg height="800px" width="800px" version="1.1" id="Layer_1" xmlns="http://www.w3.org/2000/svg" xmlns:xlink="http://www.w3.org/1999/xlink" 
	 viewBox="0 0 447.983 447.983" xml:space="preserve">
<g transform="translate(0 -1020.36)" shape-rendering="auto" image-rendering="auto" color-rendering="auto" color-interpolation="sRGB">
	<path style="fill:#EE746C;" d="M223.947,1034.179c116.142,0,210.113,93.971,210.113,210.113s-93.971,210.113-210.113,210.113
		c-116.143,0-210.113-93.971-210.114-210.113C13.833,1128.149,107.805,1034.179,223.947,1034.179L223.947,1034.179z"/>
	<path style="fill:#FB9761;" d="M223.947,1056.3c103.914,0,187.992,84.076,187.992,187.992
		c0,103.914-84.078,187.992-187.992,187.992c-103.915,0-187.992-84.076-187.992-187.992
		C35.955,1140.376,120.033,1056.3,223.947,1056.3z"/>
	<path style="fill:#29A3EC;" d="M223.947,1100.317c79.623,0,143.976,64.352,143.976,143.977
		c0,79.623-64.353,143.977-143.976,143.977c-79.624,0-143.976-64.352-143.976-143.977
		C79.971,1164.671,144.323,1100.317,223.947,1100.317z"/>
	<path style="fill:#3CDEF6;" d="M223.947,1113.438c72.367,0,130.855,58.488,130.855,130.854
		c0,72.367-58.488,130.854-130.855,130.854c-72.367,0-130.855-58.488-130.855-130.854
		C93.092,1171.925,151.58,1113.438,223.947,1113.438z"/>
	<path style="fill:#5A3392;" d="M191.939,1180.276v8.031v120h64.016v-128.031H191.939z"/>
	<path style="fill:#FFFFFF;" d="M208.003,1196.339h32.007v96.023h-32.007V1196.339z"/>
	<g>
		<g>
			<path style="fill:#5A3392;" d="M175.995,1204.253v16.064h96.024v-16.064H175.995z"/>
			<path style="fill:#5A3392;" d="M175.995,1268.269v16.064h96.024v-16.064H175.995z"/>
		</g>
		<path style="fill:#5A3392;" d="M250.986,1021.998c-51.666-6.268-105.523,5.381-151.531,36.157
			c-3.676,2.459-4.663,7.434-2.203,11.109s7.433,4.662,11.109,2.203l0,0c85.537-57.216,199.905-43.352,269.281,32.658
			c69.376,76.008,72.768,191.152,8,271.125c-64.768,79.971-178.109,100.598-266.875,48.531s-126.1-161.066-87.906-256.625
			c1.814-4.029,0.017-8.766-4.012-10.58c-4.029-1.813-8.766-0.018-10.58,4.012c-0.093,0.207-0.177,0.418-0.252,0.631
			c-41.087,102.799-0.834,220.332,94.656,276.344s217.732,33.811,287.406-52.219c69.674-86.031,66.007-210.232-8.625-292
			c-37.316-40.883-86.803-65.077-138.469-71.344V1021.998z"/>
		<path style="fill:#5A3392;" d="M242.392,1085.343c-58.03-6.693-117.219,18.84-151.438,70
			c-45.625,68.215-32.155,160.059,31.125,212.314c63.28,52.252,156.022,48.111,214.375-9.594c3.187-3.061,3.288-8.125,0.227-11.313
			c-3.061-3.188-8.126-3.289-11.313-0.227c-0.056,0.053-0.111,0.107-0.165,0.162c-52.61,52.025-135.885,55.768-192.938,8.656
			s-69.135-129.592-28-191.094s121.955-81.836,187.281-47.094c65.326,34.74,93.683,113.137,65.688,181.625
			c-1.674,4.09,0.285,8.764,4.375,10.438s8.763-0.285,10.438-4.375c31.051-75.965-0.512-163.279-72.969-201.813
			C280.965,1093.397,261.735,1087.575,242.392,1085.343z"/>
		<path style="fill:#5A3392;" d="M73.173,1081.624c-2.078,0.033-4.062,0.873-5.531,2.344c-13.77,13.426-25.755,28.574-35.656,45.063
			c-2.278,3.789-1.054,8.707,2.734,10.984s8.706,1.055,10.984-2.734c9.194-15.309,20.307-29.377,33.094-41.844
			c3.21-3.037,3.351-8.1,0.315-11.311C77.572,1082.497,75.417,1081.589,73.173,1081.624z"/>
	</g>
</g>
</svg>