<?xml version="1.0" encoding="iso-8859-1"?>
<!-- Uploaded to: SVG Repo, www.svgrepo.com, Generator: SVG Repo Mixer Tools -->
<svg fill="#000000" height="800px" width="800px" version="1.1" id="Layer_1" xmlns="http://www.w3.org/2000/svg" xmlns:xlink="http://www.w3.org/1999/xlink" 
	 viewBox="0 0 512 512" xml:space="preserve">
<g>
	<g>
		<path d="M461.792,61.929c-21.121,0-38.303,17.183-38.303,38.304V256.08h-5.711V79.59c0-21.12-17.182-38.303-38.303-38.303
			c-21.121,0-38.303,17.183-38.303,38.303v155.846h-5.711V58.946c0-21.121-17.182-38.303-38.303-38.303
			c-21.121,0-38.303,17.183-38.303,38.303v155.848h-5.71V38.303C253.145,17.183,235.961,0,214.842,0
			c-21.12,0-38.304,17.183-38.304,38.303v64.595H88.509v-2.665c0-21.121-17.182-38.304-38.303-38.304
			c-21.121,0-38.303,17.183-38.303,38.304v167.672c0,65.199,25.39,126.498,71.494,172.601S190.8,512,256.001,512
			s126.499-25.39,172.603-71.495c46.103-46.104,71.493-107.402,71.493-172.602v-167.67
			C500.096,79.112,482.912,61.929,461.792,61.929z M431.689,414.619h-44.227v15.207h30.311
			C374.551,473.011,317.102,496.794,256,496.794c-61.104,0-118.552-23.782-161.773-66.968h272.958v-15.207h-27.797V379.56H324.18
			v35.059h-22.684V379.56h-15.207v35.059h-22.685V379.56h-15.207v35.059h-22.685V379.56h-15.207v35.059h-22.684V379.56h-15.207
			v35.059H80.31c-34.436-41.093-53.201-92.458-53.201-146.714V100.233c0-12.736,10.361-23.097,23.096-23.097
			c12.734,0,23.096,10.361,23.096,23.097v68.236h15.207v-50.363h88.028v15.209h-44.933v15.207h44.934v119.385
			c0,24.27-19.745,44.014-44.014,44.014c-24.269,0-44.014-19.745-44.014-44.014v-79.16H73.302v79.16
			c0,32.655,26.566,59.221,59.221,59.221s59.221-26.567,59.221-59.221V38.303c0-12.736,10.361-23.096,23.097-23.096
			c12.735,0,23.096,10.361,23.096,23.096V230h36.124V58.946c0-12.736,10.361-23.096,23.096-23.096
			c12.736,0,23.096,10.361,23.096,23.096v191.697l36.125-0.002V79.59c0-12.736,10.361-23.096,23.096-23.096
			s23.096,10.361,23.096,23.096v191.697h36.125V100.233c0-12.736,10.361-23.097,23.096-23.097c12.737,0,23.097,10.361,23.097,23.097
			l0.001,167.671C484.89,322.16,466.125,373.525,431.689,414.619z"/>
	</g>
</g>
</svg>